<svg xmlns="http://www.w3.org/2000/svg" xmlns:xlink="http://www.w3.org/1999/xlink" width="171.129" height="32.2" viewBox="0 0 171.129 32.2">
  <defs>
    <linearGradient id="linear-gradient" x1="-0.019" y1="1.019" x2="1.023" y2="-0.016" gradientUnits="objectBoundingBox">
      <stop offset="0" stop-color="blue"/>
      <stop offset="1" stop-color="#09f"/>
    </linearGradient>
  </defs>
  <g id="Group_1" data-name="Group 1" transform="translate(-345 -423)">
    <path id="Shape" d="M.92,17.762a3.24,3.24,0,0,1,0-4.524,3.24,3.24,0,0,0,.819-3.067A3.234,3.234,0,0,1,3.994,6.253,3.227,3.227,0,0,0,6.231,4.008a3.22,3.22,0,0,1,3.9-2.262A3.214,3.214,0,0,0,13.192.924a3.213,3.213,0,0,1,4.509,0,3.214,3.214,0,0,0,3.056.822,3.22,3.22,0,0,1,3.9,2.262A3.227,3.227,0,0,0,26.9,6.253a3.234,3.234,0,0,1,2.254,3.918,3.24,3.24,0,0,0,.819,3.067,3.24,3.24,0,0,1,0,4.524,3.24,3.24,0,0,0-.819,3.067A3.234,3.234,0,0,1,26.9,24.747a3.227,3.227,0,0,0-2.238,2.245,3.22,3.22,0,0,1-3.9,2.262,3.213,3.213,0,0,0-3.056.822,3.214,3.214,0,0,1-4.509,0,3.214,3.214,0,0,0-3.056-.822,3.22,3.22,0,0,1-3.9-2.262,3.227,3.227,0,0,0-2.237-2.245,3.234,3.234,0,0,1-2.254-3.918A3.24,3.24,0,0,0,.92,17.762Z" transform="translate(345 423)" fill="url(#linear-gradient)"/>
    <path id="Path_1" data-name="Path 1" d="M23.343-12.09H12.462v4.34h5.8C17.484-5.673,15.593-4.4,12.71-4.4c-4.216,0-6.82-2.7-6.82-6.386a6.238,6.238,0,0,1,6.386-6.51,6.205,6.205,0,0,1,5.3,2.542l4.216-2.418a11.1,11.1,0,0,0-9.486-4.96A11.254,11.254,0,0,0,.93-10.819C.93-4.588,5.828.434,12.648.434c6.076,0,10.7-4.03,10.7-10.664Zm6.82-.651V-15.5h-4.65V0h4.65V-7.006c0-3.069,2.728-3.844,4.65-3.534v-5.27A4.656,4.656,0,0,0,30.163-12.741ZM43.493.434A8.124,8.124,0,0,0,51.708-7.75a8.124,8.124,0,0,0-8.215-8.184A8.124,8.124,0,0,0,35.278-7.75,8.124,8.124,0,0,0,43.493.434Zm0-4.526A3.476,3.476,0,0,1,39.928-7.75a3.476,3.476,0,0,1,3.565-3.658A3.476,3.476,0,0,1,47.058-7.75,3.476,3.476,0,0,1,43.493-4.092ZM63.891-15.5v8.463c0,2.2-1.178,3.193-2.883,3.193a2.556,2.556,0,0,1-2.7-2.821V-15.5h-4.65v9.517c0,4.185,2.666,6.417,5.8,6.417a5.3,5.3,0,0,0,4.433-1.891V0h4.65V-15.5Zm16.864-.434a5.822,5.822,0,0,0-4.619,1.891V-15.5h-4.65V6.2h4.65V-1.457A5.822,5.822,0,0,0,80.755.434c4.061,0,7.409-3.565,7.409-8.184S84.816-15.934,80.755-15.934Zm-.93,11.966A3.54,3.54,0,0,1,76.136-7.75a3.54,3.54,0,0,1,3.689-3.782A3.54,3.54,0,0,1,83.514-7.75,3.54,3.54,0,0,1,79.825-3.968Zm35,3.968-6.479-11.129L114.514-21.7h-5.642l-3.348,5.735L102.176-21.7H96.534L102.7-11.129,96.224,0h5.642l3.658-6.262L109.182,0Zm6.913,0h6.324l7.068-21.7H129.7L124.9-5.735,120.094-21.7h-5.425Z" transform="translate(381 449)"/>
  </g>
</svg>
